<svg xmlns="http://www.w3.org/2000/svg" width="32" height="32" viewBox="0 0 32 32">
  <path d="M31.63,15.73,16.27.37a.37.37,0,0,0-.52,0h0L.37,15.73a.37.37,0,0,0,0,.52h0L15.73,31.63a.37.37,0,0,0,.52,0h0L31.63,16.27a.37.37,0,0,0,0-.52ZM25,12.29l-3,5.79a.22.22,0,0,0,.12.28h1.89a.2.2,0,0,1,.18.23.17.17,0,0,1-.07.14l-7.92,5.72a.26.26,0,0,1-.24,0L8,18.74a.22.22,0,0,1,0-.3H8a.24.24,0,0,1,.13-.07H9.9a.22.22,0,0,0,.22-.22h0v-.07l-3-5.79A.22.22,0,0,1,7.22,12a.17.17,0,0,1,.14,0l7.12,4.67a.65.65,0,0,1,.29.32l1.09,2.18a.19.19,0,0,0,.26.09.22.22,0,0,0,.1-.09L17.27,17a1,1,0,0,1,.29-.32L24.68,12a.21.21,0,0,1,.28.1h0A.2.2,0,0,1,25,12.29Z" fill="#FFFFFF"/>
  </svg>
